HIERARCHY
ROOT Hips
{
	OFFSET 0.00000 0.00000 0.00000
	CHANNELS 6 Xposition Yposition Zposition Yrotation Zrotation Xrotation 
	JOINT Lumbar
	{
		OFFSET 0 0 0
		CHANNELS 3 Zrotation Xrotation Yrotation
		JOINT Neck
		{
			OFFSET 0.00 0.2701 0.00
			CHANNELS 3 Zrotation Xrotation Yrotation
			End Site
			{
				OFFSET 0.00 0.1379 0.00
			}
		}
		JOINT RightShoulder
		{
			OFFSET 0.0119 0.2289 0.1181
			CHANNELS 3 Zrotation Xrotation Yrotation
			JOINT RightElbow
			{
				OFFSET 0.00 -0.1475 0.00
				CHANNELS 2 Zrotation Yrotation
				JOINT RightWrist
				{
					OFFSET 0.00 -0.1605 0.00
					CHANNELS 2 Zrotation Xrotation
					End Site
					{
						OFFSET 0.0040 -0.1068 0.0006
					}
				}
			}
		}
		JOINT LeftShoulder
		{
			OFFSET 0.0119 0.2289 -0.1181
			CHANNELS 3 Zrotation Xrotation Yrotation
			JOINT LeftElbow
			{
				OFFSET 0.00 -0.1475 0.00
				CHANNELS 2 Zrotation Yrotation
				JOINT LeftWrist
				{
					OFFSET 0.00 -0.1605 0.00
					CHANNELS 2 Zrotation Xrotation
					End Site
					{
						OFFSET 0.0040 -0.1068 -0.0006
					}
				}
			}
		}
	}
	JOINT RightHip
	{
		OFFSET 0.0316 -0.0424 0.0458
		CHANNELS 3 Zrotation Xrotation Yrotation
		JOINT RightKnee
		{
			OFFSET 0.00 -0.2438 0.00
			CHANNELS 1 Zrotation
			JOINT RightAnkle
			{
				OFFSET 0.00 -0.2449 0.00
				CHANNELS 3 Zrotation Xrotation Yrotation
				End Site
				{
					OFFSET 0.1237 -0.0542 0.0051
				}
			}
		}
	}
	JOINT LeftHip
	{
		OFFSET 0.0316 -0.0424 -0.0458
		CHANNELS 3 Zrotation Xrotation Yrotation
		JOINT LeftKnee
		{
			OFFSET 0.00 -0.2438 0.00
			CHANNELS 1 Zrotation
			JOINT LeftAnkle
			{
				OFFSET 0.00 -0.2449 0.00
				CHANNELS 3 Zrotation Xrotation Yrotation
				End Site
				{
					OFFSET 0.1237 -0.0542 -0.0051
				}
			}
		}
	}
}
MOTION
Frames: 31
Frame Time: 0.02
0.00033 -0.00063 -0.00016 -179.21988 -42.26555 -1.29633 47.15213 1.99757 -4.68395 3.31885 -4.06071 -0.94509 -34.09737 -11.51493 -14.04994 36.17855 87.85998 1.51546 1.56013 -39.03335 10.30867 6.5488 46.0415 -94.65397 6.02494 -2.42393 43.79946 -2.9712 -8.91964 -19.24348 -6.25639 -2.70431 -3.52463 49.96123 5.56825 3.39259 -24.88165 -6.4797 1.73979 3.07702
0.00047 -0.00058 -9e-05 -179.23375 -42.22392 -1.29763 47.18859 1.97298 -4.62535 3.94633 -4.03896 -0.94739 -30.90702 -12.13012 -12.63794 36.4572 87.90525 1.74193 1.54067 -34.82084 10.8753 5.46112 45.99512 -94.66856 6.13953 -2.37749 43.76737 -3.00798 -9.17429 -19.22824 -6.25158 -2.6971 -3.52016 49.93535 5.63057 3.70431 -24.87723 -6.47759 1.70738 3.0616
0.00061 -0.00053 -1e-05 -179.2476 -42.18242 -1.29891 47.22504 1.94845 -4.56684 4.57254 -4.01725 -0.9497 -27.72348 -12.74354 -11.22849 36.73533 87.95089 1.96807 1.5212 -30.61738 11.43979 4.3757 45.94867 -94.6826 6.25354 -2.33112 43.73539 -3.04464 -9.4282 -19.21301 -6.24679 -2.68991 -3.51569 49.90957 5.6927 4.01511 -24.87282 -6.47549 1.67505 3.04622
0.00076 -0.00048 6e-05 -179.26143 -42.14092 -1.3002 47.2614 1.92393 -4.50839 5.19821 -3.99555 -0.952 -24.5424 -13.35687 -9.82053 37.01315 87.99612 2.19392 1.50179 -26.41712 12.00464 3.29117 45.90236 -94.69708 6.36775 -2.28481 43.7034 -3.0813 -9.68209 -19.19781 -6.242 -2.68272 -3.51122 49.88377 5.75483 4.32587 -24.86841 -6.47339 1.64274 3.03085
0.0009 -0.00043 0.00013 -179.27525 -42.09928 -1.3015 47.29776 1.89937 -4.44989 5.82487 -3.97382 -0.9543 -21.35584 -13.97185 -8.41076 37.29143 88.04074 2.41994 1.48239 -22.20953 12.57172 2.20487 45.85632 -94.71224 6.48261 -2.23846 43.6713 -3.11806 -9.93665 -19.18259 -6.23721 -2.67554 -3.50675 49.85788 5.81714 4.63751 -24.86401 -6.47128 1.61033 3.01544
0.00104 -0.00039 0.00021 -179.28916 -42.0581 -1.30274 47.33438 1.87489 -4.39137 6.45006 -3.95216 -0.9566 -18.17898 -14.58193 -7.00212 37.56927 88.08847 2.64628 1.46279 -18.01513 13.13069 1.12138 45.80907 -94.72389 6.59479 -2.19205 43.63958 -3.15452 -10.18915 -19.16734 -6.23242 -2.66832 -3.5023 49.83232 5.87889 4.94653 -24.85957 -6.46918 1.5782 3.00015
0.00119 -0.00034 0.00028 -179.30289 -42.01603 -1.3041 47.37043 1.85029 -4.33294 7.07759 -3.93038 -0.95891 -14.98573 -15.20131 -5.59264 37.84749 88.13006 2.87183 1.44363 -13.79835 13.70547 0.03329 45.76401 -94.74275 6.71232 -2.14582 43.60712 -3.19156 -10.44564 -19.15218 -6.22762 -2.66116 -3.49781 49.80612 5.94169 5.26049 -24.85522 -6.46707 1.54555 2.98463
0.00133 -0.00029 0.00035 -179.31678 -41.97479 -1.30535 47.40702 1.82579 -4.27445 7.70283 -3.90868 -0.96121 -11.80826 -15.81193 -4.18417 38.12572 88.177 3.09794 1.42406 -9.60308 14.26548 -1.0503 45.71746 -94.75468 6.82477 -2.09941 43.57535 -3.22803 -10.69824 -19.13694 -6.22283 -2.65397 -3.49336 49.78051 6.00354 5.5699 -24.85078 -6.46497 1.51337 2.96932
0.00147 -0.00024 0.00043 -179.3309 -41.93453 -1.30646 47.44426 1.80144 -4.21575 8.32616 -3.8872 -0.96351 -8.64554 -16.41283 -2.77505 38.40271 88.23184 3.32556 1.40398 -5.42817 14.80838 -2.13008 45.66693 -94.75916 6.93158 -2.0528 43.54437 -3.26394 -10.94704 -19.12159 -6.21805 -2.64664 -3.48891 49.7556 6.06419 5.87384 -24.84624 -6.46288 1.48176 2.95427
0.00163 -0.00019 0.00051 -179.34379 -41.88851 -1.30835 47.47772 1.77628 -4.15783 8.96321 -3.86484 -0.96583 -5.38415 -17.07268 -1.36392 38.68308 88.2453 3.54696 1.38678 -1.11808 15.45257 -3.23688 45.63283 -94.80955 7.07258 -2.00738 43.50871 -3.3035 -11.22056 -19.10684 -6.2132 -2.63984 -3.48432 49.72663 6.13166 6.20954 -24.84229 -6.46074 1.44688 2.93773
0.00174 -0.00014 0.00057 -179.35922 -41.85474 -1.30864 47.51915 1.7528 -4.09858 9.56945 -3.8441 -0.9681 -2.34033 -17.60614 0.03899 38.95866 88.34339 3.77984 1.36354 2.89454 15.88124 -4.2832 45.5682 -94.76121 7.14034 -1.95947 43.48302 -3.33506 -11.4401 -19.09085 -6.20854 -2.63209 -3.48013 49.70625 6.18477 6.47801 -24.83711 -6.45872 1.41889 2.92433
0.00173 -8e-05 0.00057 -179.38214 -41.85395 -1.30404 47.58256 1.7342 -4.03301 10.1055 -3.82973 -0.97025 0.17755 -17.80634 1.45267 39.20197 88.6986 4.05842 1.32349 6.18351 15.72798 -5.19125 45.38481 -94.45565 7.01483 -1.90448 43.48407 -3.3472 -11.52597 -19.0711 -6.20382 -2.62 -3.4763 49.7092 6.19798 6.56284 -24.82841 -6.4569 1.40996 2.91956
0.00167 -2e-05 0.00056 -179.40756 -41.86551 -1.29794 47.65387 1.71725 -3.96658 10.6077 -3.81656 -0.97235 2.46239 -17.87731 2.85181 39.44391 89.13443 4.34602 1.27746 9.15484 15.3569 -6.03353 45.17723 -94.04937 6.81487 -1.84706 43.49517 -3.35093 -11.55562 -19.0502 -6.19938 -2.6072 -3.47298 49.72074 6.19699 6.58056 -24.81851 -6.45525 1.40788 2.91793
0.00163 3e-05 0.00055 -179.43145 -41.87187 -1.29282 47.72153 1.69934 -3.90233 11.11635 -3.80169 -0.97446 4.80931 -17.99834 4.23607 39.69915 89.51679 4.62007 1.23429 12.21345 15.07883 -6.88769 45.00355 -93.67896 6.6433 -1.79088 43.50216 -3.35671 -11.60075 -19.03003 -6.19521 -2.59592 -3.46997 49.72863 6.20266 6.62772 -24.80924 -6.45359 1.40263 2.9149
0.00159 0.0001 0.00055 -179.45683 -41.87672 -1.28633 47.7897 1.68223 -3.83062 11.66372 -3.79201 -0.97662 7.3467 -18.15495 5.71161 39.90136 89.96934 4.93356 1.19039 15.51994 14.82409 -7.81735 44.73311 -93.34616 6.49246 -1.73404 43.50753 -3.36956 -11.68559 -19.00889 -6.18942 -2.57983 -3.46482 49.73582 6.2069 6.67689 -24.79957 -6.45161 1.3978 2.91184
0.00154 0.00015 0.00054 -179.47992 -41.8874 -1.28244 47.85838 1.66394 -3.77412 12.12105 -3.77144 -0.97868 9.42474 -18.20777 6.99285 40.21307 90.29607 5.16765 1.14672 18.22532 14.471 -8.57466 44.65846 -92.91615 6.28344 -1.67813 43.51831 -3.36618 -11.67773 -18.98962 -6.18698 -2.57327 -3.46408 49.74607 6.21143 6.70884 -24.79049 -6.45041 1.39347 2.90946
0.00144 0.00019 0.0005 -179.49415 -41.91302 -1.2854 47.92886 1.6414 -3.76113 12.34962 -3.72337 -0.9804 10.35381 -17.99811 7.74693 40.83178 90.24459 5.17497 1.10422 19.42882 13.88477 -8.86751 45.12908 -92.20057 5.90999 -1.62431 43.54453 -3.31586 -11.39886 -18.97496 -6.19457 -2.59605 -3.47697 49.76622 6.21404 6.68371 -24.78303 -6.45053 1.39113 2.90929
0.00132 0.00022 0.00046 -179.50636 -41.94368 -1.29114 47.99907 1.61774 -3.76329 12.48642 -3.66371 -0.9821 10.81632 -17.69012 8.30467 41.55914 90.06575 5.10305 1.06237 20.02231 13.21022 -8.98977 45.7966 -91.399 5.48493 -1.57184 43.57528 -3.25024 -11.0337 -18.96242 -6.20536 -2.62793 -3.49399 49.78849 6.21833 6.64731 -24.77628 -6.45155 1.38872 2.90954
0.00121 0.00025 0.00042 -179.52074 -41.97083 -1.29607 48.06794 1.59498 -3.75762 12.65785 -3.6075 -0.98379 11.45254 -17.43178 8.94874 42.23489 89.95242 5.07092 1.02076 20.84395 12.58558 -9.19352 46.37637 -90.66353 5.09766 -1.51931 43.60208 -3.19443 -10.72735 -18.94946 -6.2141 -2.65371 -3.50803 49.80749 6.22622 6.63452 -24.76938 -6.45274 1.38467 2.90879
0.0011 0.00029 0.00038 -179.52986 -42.00369 -1.29908 48.14352 1.5706 -3.75574 12.85865 -3.55915 -0.98532 12.2455 -17.147 9.60541 42.92319 89.80967 5.02323 0.97649 21.86632 11.91091 -9.37939 46.95301 -89.80828 4.64632 -1.46385 43.63734 -3.12647 -10.33768 -18.9341 -6.22532 -2.68762 -3.52664 49.83658 6.21623 6.5459 -24.76167 -6.45164 1.38746 2.91134
0.00098 0.00031 0.00033 -179.54948 -42.02552 -1.30672 48.20465 1.54932 -3.7498 12.9761 -3.49149 -0.98746 12.60034 -16.89686 10.18835 43.60719 89.69693 4.98892 0.93823 22.32408 11.32379 -9.56143 47.57696 -89.18617 4.31831 -1.4155 43.65576 -3.08006 -10.1001 -18.92434 -6.23217 -2.70694 -3.53682 49.84499 6.24276 6.6077 -24.75588 -6.45531 1.37651 2.90736
0.0008 0.00029 0.00024 -179.59815 -42.01712 -1.32689 48.22847 1.53678 -3.72737 12.89241 -3.37475 -0.98894 11.89297 -16.75661 10.62352 44.28727 89.69749 5.01167 0.91445 21.42097 10.98849 -9.78537 48.33644 -89.21406 4.33686 -1.38183 43.62794 -3.09882 -10.31823 -18.92877 -6.22586 -2.68231 -3.52183 49.7962 6.38115 7.13771 -24.75465 -6.47391 1.32216 2.8828
0.0006 0.00026 0.00013 -179.65757 -41.99715 -1.35153 48.23727 1.52744 -3.70089 12.72674 -3.23876 -0.9914 10.75547 -16.65713 10.9892 44.95305 89.73231 5.05038 0.89709 19.96234 10.74757 -10.00857 49.12637 -89.4884 4.48495 -1.35691 43.58276 -3.13947 -10.68984 -18.93891 -6.2151 -2.64295 -3.49838 49.72641 6.55428 7.81104 -24.75543 -6.49695 1.25491 2.85209
0.00041 0.00023 2e-05 -179.71228 -41.98142 -1.37385 48.2512 1.51668 -3.67699 12.59472 -3.11054 -0.995 9.79446 -16.54602 11.38255 45.60244 89.7516 5.08133 0.87813 18.7286 10.47215 -10.2268 49.86842 -89.65309 4.57587 -1.33007 43.54456 -3.16887 -10.98204 -18.94693 -6.20655 -2.61127 -3.47937 49.66591 6.70394 8.38554 -24.7557 -6.51664 1.19723 2.82584
0.00022 0.0002 -8e-05 -179.76596 -41.97004 -1.39753 48.27217 1.50565 -3.64945 12.47554 -2.98578 -0.99214 8.8982 -16.40213 11.78841 46.35131 89.76659 5.11191 0.85369 17.59318 10.15821 -10.46598 50.76345 -89.78196 4.6494 -1.29145 43.51022 -3.20321 -11.31247 -18.95301 -6.19729 -2.57575 -3.45798 49.60655 6.88563 9.09957 -24.75434 -6.54187 1.12419 2.79269
2e-05 0.00016 -0.00019 -179.82462 -41.94692 -1.41932 48.27505 1.49603 -3.62964 12.31028 -2.84973 -1.00268 7.76973 -16.33767 12.15067 46.88936 89.8 5.14777 0.84212 16.12478 9.94791 -10.6579 51.3415 -90.07374 4.80106 -1.28336 43.46383 -3.23267 -11.6002 -18.96446 -6.18842 -2.54461 -3.4395 49.53982 7.00938 9.56005 -24.7568 -6.55675 1.07974 2.7723
-0.00023 9e-05 -0.00031 -179.89243 -41.893 -1.43541 48.23041 1.48889 -3.62115 12.04686 -2.68445 -1.05256 6.11818 -16.48255 12.44158 46.84008 89.87832 5.19679 0.86495 13.91139 10.00412 -10.77124 51.06321 -90.49341 5.04134 -1.32128 43.38692 -3.24351 -11.73832 -18.9894 -6.1816 -2.5291 -3.43101 49.45771 6.96 9.26039 -24.76952 -6.5407 1.12033 2.78994
-0.0005 -1e-05 -0.00043 -179.96528 -41.82786 -1.44929 48.16841 1.48314 -3.62263 11.73828 -2.5091 -1.11547 4.24738 -16.70695 12.68628 46.58174 89.97355 5.25009 0.90036 11.37768 10.16188 -10.82997 50.46022 -91.10571 5.36945 -1.39467 43.29874 -3.24871 -11.8274 -19.0195 -6.17533 -2.51848 -3.42576 49.36896 6.85196 8.70525 -24.78597 -6.51433 1.18959 2.82042
-0.00077 -0.0001 -0.00056 -180.03709 -41.7686 -1.46375 48.11499 1.47718 -3.62665 11.44543 -2.34023 -1.17062 2.47137 -16.89482 12.93175 46.42229 90.06087 5.30073 0.92982 8.96879 10.2705 -10.87846 49.98602 -91.81725 5.72573 -1.47769 43.21664 -3.25645 -11.93567 -19.04719 -6.16885 -2.5056 -3.41909 49.28335 6.77384 8.28363 -24.80061 -6.49349 1.24377 2.8442
-0.00103 -0.00019 -0.00068 -180.10391 -41.70558 -1.48019 48.05765 1.46966 -3.60046 11.17152 -2.16253 -1.23324 0.70207 -17.08365 13.25892 46.23967 90.15281 5.35658 0.9608 6.62887 10.39219 -11.06775 49.5871 -91.79853 5.81706 -1.4593 43.12984 -3.26512 -12.06274 -19.07543 -6.162 -2.49232 -3.41192 49.19644 6.68324 7.79386 -24.81586 -6.46921 1.30613 2.87139
-0.00129 -0.00028 -0.0008 -180.18231 -41.64795 -1.4919 48.00513 1.46555 -3.63988 10.84647 -2.00124 -1.28378 -1.12955 -17.29143 13.40731 46.06382 90.2355 5.40026 0.99111 4.07511 10.51306 -10.95971 48.96031 -93.28099 6.45687 -1.65167 43.05046 -3.27014 -12.13645 -19.10357 -6.15618 -2.48129 -3.40667 49.11101 6.60418 7.38301 -24.83062 -6.44962 1.35847 2.89462
